<?xml version="1.0" standalone="no"?>
<!DOCTYPE svg PUBLIC "-//W3C//DTD SVG 20010904//EN"
 "http://www.w3.org/TR/2001/REC-SVG-20010904/DTD/svg10.dtd">
<svg version="1.0" xmlns="http://www.w3.org/2000/svg"
 width="1277.000000pt" height="1280.000000pt" viewBox="0 0 1277.000000 1280.000000"
 preserveAspectRatio="xMidYMid meet">
<metadata>
Created by potrace 1.15, written by Peter Selinger 2001-2017
</metadata>
<g transform="translate(0.000000,1280.000000) scale(0.100000,-0.100000)"
fill="#000000" stroke="none">
<path d="M6075 12794 c-893 -48 -1714 -261 -2510 -654 -649 -319 -1174 -697
-1695 -1219 -983 -984 -1609 -2237 -1804 -3611 -49 -341 -60 -508 -60 -910 0
-402 11 -568 60 -910 166 -1175 652 -2269 1415 -3186 1038 -1248 2516 -2059
4109 -2253 317 -38 442 -46 795 -46 480 0 835 35 1275 124 1307 265 2524 954
3421 1936 885 970 1439 2138 1623 3425 49 339 60 507 60 910 0 474 -27 777
-109 1208 -229 1218 -821 2354 -1696 3256 -670 691 -1490 1222 -2407 1557
-494 181 -1043 303 -1597 354 -162 15 -724 27 -880 19z m861 -479 c1021 -102
1915 -418 2750 -971 1309 -867 2229 -2236 2538 -3776 84 -417 110 -697 110
-1168 0 -390 -11 -551 -59 -877 -376 -2531 -2363 -4555 -4885 -4977 -1415
-237 -2837 27 -4055 752 -1443 859 -2460 2293 -2789 3934 -84 417 -110 697
-110 1168 0 471 27 757 110 1170 290 1434 1094 2704 2269 3584 575 431 1225
754 1922 955 434 125 823 190 1353 225 126 8 704 -4 846 -19z"/>
<path d="M6195 12073 c-806 -26 -1586 -222 -2310 -578 -839 -413 -1541 -1004
-2103 -1771 -29 -39 -52 -77 -52 -83 0 -7 255 -454 567 -994 311 -540 690
-1196 840 -1457 151 -261 278 -478 281 -482 4 -4 704 1199 1555 2674 1165
2016 1545 2683 1535 2689 -12 8 -118 9 -313 2z"/>
<path d="M6421 11297 c-242 -419 -624 -1081 -850 -1472 l-410 -710 3101 -3
c1706 -1 3103 0 3105 2 6 6 -132 239 -235 396 -420 642 -979 1204 -1617 1625
-738 487 -1597 803 -2450 899 -77 9 -154 18 -172 20 l-32 5 -440 -762z"/>
<path d="M1518 9324 c-65 -102 -206 -368 -275 -515 -481 -1037 -639 -2147
-467 -3279 75 -493 234 -1032 433 -1462 l40 -88 1697 0 c1611 0 1696 1 1690
18 -4 9 -42 78 -85 152 -70 120 -769 1331 -2451 4245 -295 512 -541 939 -547
949 -10 18 -13 16 -35 -20z"/>
<path d="M8130 8811 c0 -5 692 -1207 1538 -2672 846 -1465 1543 -2673 1549
-2683 9 -17 18 -7 68 78 356 606 601 1295 709 1996 75 488 86 1026 30 1519
-65 571 -234 1185 -463 1684 l-40 87 -1696 0 c-961 0 -1695 -4 -1695 -9z"/>
<path d="M7797 3420 c-852 -1474 -1545 -2685 -1541 -2692 8 -13 372 -3 614 17
1519 130 2916 862 3891 2040 107 129 279 360 279 374 0 10 -1673 2916 -1689
2933 -4 5 -703 -1198 -1554 -2672z"/>
<path d="M1400 3686 c0 -15 167 -291 260 -431 499 -748 1160 -1360 1950 -1807
549 -311 1214 -545 1844 -648 173 -28 450 -60 457 -51 12 12 1684 2914 1687
2928 3 11 -519 13 -3097 13 -1706 0 -3101 -2 -3101 -4z"/>
</g>
</svg>
