<?xml version="1.0" standalone="no"?>
<!DOCTYPE svg PUBLIC "-//W3C//DTD SVG 20010904//EN"
 "http://www.w3.org/TR/2001/REC-SVG-20010904/DTD/svg10.dtd">
<svg version="1.0" xmlns="http://www.w3.org/2000/svg"
 width="1280.000000pt" height="1280.000000pt" viewBox="0 0 1280.000000 1280.000000"
 preserveAspectRatio="xMidYMid meet">
<metadata>
Created by potrace 1.15, written by Peter Selinger 2001-2017
</metadata>
<g transform="translate(0.000000,1280.000000) scale(0.100000,-0.100000)"
fill="#ff5722" stroke="none">
<path d="M1268 12765 c-363 -106 -630 -246 -809 -425 -177 -177 -321 -451
-424 -812 l-35 -120 0 -674 0 -674 1984 0 1983 0 139 86 c273 168 648 341 954
439 659 212 1380 264 2065 149 561 -93 1125 -308 1611 -614 l96 -60 1984 0
1984 0 0 674 0 674 -35 120 c-124 432 -306 741 -538 915 -166 124 -377 230
-620 311 l-136 46 -5043 0 -5043 -1 -117 -34z m10015 -438 c47 -20 95 -64 120
-111 l22 -41 3 -748 c2 -747 2 -747 -19 -798 -25 -58 -82 -111 -138 -127 -27
-9 -245 -12 -777 -12 -722 0 -740 1 -784 21 -58 26 -87 53 -116 111 l-24 47 0
735 c0 711 1 737 20 789 23 62 57 98 120 126 44 20 62 21 793 21 605 0 754 -3
780 -13z"/>
<path d="M6195 10189 c-699 -35 -1397 -275 -1970 -678 -340 -239 -697 -596
-936 -936 -365 -519 -594 -1134 -665 -1782 -21 -198 -21 -588 0 -786 51 -465
170 -873 377 -1292 488 -989 1400 -1727 2464 -1994 1080 -271 2225 -59 3122
577 338 239 676 577 915 915 701 988 883 2274 486 3427 -193 558 -509 1054
-939 1476 -594 580 -1340 941 -2168 1049 -111 14 -448 36 -511 33 -14 0 -92
-4 -175 -9z m625 -574 c971 -135 1800 -666 2323 -1488 244 -385 406 -834 474
-1317 25 -177 25 -643 0 -820 -104 -738 -414 -1367 -927 -1880 -513 -514
-1140 -822 -1882 -927 -173 -24 -642 -25 -815 0 -865 122 -1586 527 -2123
1193 -373 463 -599 996 -687 1617 -24 172 -24 642 0 814 112 791 468 1476
1037 1991 535 485 1186 767 1930 836 104 9 559 -3 670 -19z"/>
<path d="M0 5304 l0 -4067 36 -91 c117 -294 290 -568 451 -716 175 -160 451
-299 785 -395 l120 -35 5008 0 5008 0 120 35 c247 71 462 165 632 276 261 172
459 469 601 902 l39 118 0 4019 0 4020 -1581 0 -1581 0 37 -42 c290 -340 455
-580 626 -913 195 -379 322 -735 403 -1136 249 -1221 -20 -2460 -753 -3469
-251 -347 -614 -710 -961 -961 -1337 -971 -3088 -1116 -4561 -379 -614 308
-1179 787 -1580 1340 -732 1008 -1002 2248 -754 3465 145 714 480 1405 944
1949 42 49 86 101 99 117 l23 29 -1580 0 -1581 0 0 -4066z"/>
</g>
</svg>
