<?xml version="1.0" standalone="no"?>
<!DOCTYPE svg PUBLIC "-//W3C//DTD SVG 20010904//EN"
 "http://www.w3.org/TR/2001/REC-SVG-20010904/DTD/svg10.dtd">
<svg version="1.0" xmlns="http://www.w3.org/2000/svg"
 width="960.000000pt" height="1280.000000pt" viewBox="0 0 960.000000 1280.000000"
 preserveAspectRatio="xMidYMid meet">
<metadata>
Created by potrace 1.15, written by Peter Selinger 2001-2017
</metadata>
<g transform="translate(0.000000,1280.000000) scale(0.100000,-0.100000)"
fill="#ff5722" stroke="none">
<path d="M5380 12390 c-142 -26 -244 -60 -375 -126 -149 -74 -275 -166 -425
-309 l-125 -121 -95 18 c-293 53 -479 81 -805 118 -49 5 -205 15 -346 22 -479
21 -929 -20 -1284 -118 -237 -65 -482 -176 -645 -292 -118 -83 -268 -232 -338
-335 -102 -148 -182 -347 -212 -527 -39 -235 -12 -595 64 -851 l15 -48 -44
-65 c-49 -73 -77 -142 -108 -266 -19 -75 -22 -112 -21 -310 0 -194 3 -239 22
-330 96 -447 313 -773 625 -940 89 -47 199 -85 292 -100 149 -25 135 -17 185
-108 91 -167 206 -292 364 -396 295 -196 644 -284 1124 -286 l93 0 39 -82 c78
-168 151 -388 200 -607 33 -144 68 -387 58 -397 -11 -10 -147 17 -242 47 -126
41 -244 99 -358 175 -89 59 -141 84 -174 84 -6 0 -28 -60 -49 -132 -139 -495
-290 -916 -499 -1385 -166 -374 -308 -655 -766 -1508 -498 -930 -765 -1495
-989 -2100 -132 -355 -194 -552 -195 -620 l-1 -60 969 -5 969 -5 11 -30 c52
-144 169 -211 396 -229 41 -3 176 -15 300 -26 347 -31 798 -42 1179 -30 502
16 1125 72 1179 107 38 24 55 77 43 132 -5 25 -13 53 -16 62 -6 15 109 17
1352 23 747 3 1584 9 1861 12 l502 7 0 54 c0 52 -8 69 -154 331 -525 946
-1004 1907 -1336 2681 -310 724 -637 1603 -964 2588 -37 112 -72 206 -78 209
-5 3 -37 -9 -71 -26 -170 -90 -249 -125 -384 -170 -81 -27 -148 -48 -150 -47
-9 10 46 415 88 647 17 91 36 198 43 238 7 40 15 74 17 76 2 2 49 18 104 36
437 144 772 494 951 992 l39 108 51 0 c29 0 98 5 155 11 382 38 658 221 803
530 73 155 91 244 91 444 0 181 -7 226 -57 390 -70 231 -199 451 -395 671
l-72 81 30 94 c120 374 124 745 13 1019 -95 236 -300 444 -532 540 -158 66
-247 83 -460 86 l-192 2 -88 57 c-201 129 -474 244 -682 286 -144 30 -367 34
-500 9z"/>
</g>
</svg>
