<?xml version="1.0" standalone="no"?>
<!DOCTYPE svg PUBLIC "-//W3C//DTD SVG 20010904//EN"
 "http://www.w3.org/TR/2001/REC-SVG-20010904/DTD/svg10.dtd">
<svg version="1.0" xmlns="http://www.w3.org/2000/svg"
 width="1280.000000pt" height="902.000000pt" viewBox="0 0 1280.000000 902.000000"
 preserveAspectRatio="xMidYMid meet">
<metadata>
Created by potrace 1.15, written by Peter Selinger 2001-2017
</metadata>
<g transform="translate(0.000000,902.000000) scale(0.100000,-0.100000)"
fill="#ff5722" stroke="none">
<path d="M6515 8997 c-47 -27 -129 -125 -184 -222 -22 -38 -135 -293 -251
-565 -241 -565 -362 -811 -505 -1025 -121 -181 -193 -272 -345 -430 -64 -66
-122 -135 -130 -154 -12 -31 -12 -37 6 -69 10 -20 33 -44 51 -55 29 -17 34
-17 61 -3 44 23 135 128 213 246 44 66 194 353 403 770 360 719 395 785 525
994 84 135 200 271 225 263 6 -2 21 -21 33 -43 26 -44 126 -342 173 -514 37
-133 40 -139 88 -192 50 -55 123 -91 188 -90 55 0 131 18 151 34 31 25 317
-225 455 -397 161 -202 385 -615 438 -809 23 -81 20 -95 -19 -96 -28 0 -93
-46 -114 -80 -33 -53 -29 -167 12 -285 16 -49 29 -90 28 -92 -2 -1 -34 10 -72
24 -63 24 -84 27 -205 27 -130 1 -137 0 -189 -27 -31 -17 -85 -61 -126 -105
l-73 -76 -58 0 c-33 0 -133 4 -224 9 -142 7 -170 6 -196 -8 -72 -37 -123 -115
-190 -290 -46 -120 -93 -195 -178 -286 -83 -87 -129 -110 -230 -118 -70 -5
-73 -5 -108 25 -48 42 -90 126 -149 293 -53 152 -80 205 -148 289 -53 66 -63
73 -121 104 -91 48 -221 58 -405 31 -146 -21 -144 -21 -188 35 -47 61 -117 96
-209 105 -58 6 -71 4 -108 -16 -23 -13 -55 -41 -71 -63 l-29 -40 25 -26 c14
-14 25 -32 25 -39 0 -20 -104 -194 -184 -306 -134 -191 -272 -355 -707 -841
-385 -429 -535 -589 -1125 -1194 -1069 -1097 -1227 -1240 -1737 -1582 -121
-81 -153 -108 -181 -151 -70 -106 -68 -188 5 -250 53 -46 114 -62 224 -61 80
1 105 6 225 48 519 181 991 286 1291 286 l76 0 -93 -189 c-52 -104 -105 -224
-120 -268 -30 -89 -36 -194 -14 -258 31 -96 113 -171 217 -201 49 -14 59 -14
150 6 54 11 181 43 283 70 258 68 304 76 570 100 129 11 309 30 400 40 265 32
525 44 609 30 39 -6 71 -14 71 -17 0 -3 -26 -51 -58 -107 -98 -171 -132 -267
-132 -371 0 -74 24 -129 73 -172 76 -67 162 -67 347 -2 63 23 144 50 180 60
83 25 258 52 287 44 13 -3 51 -44 91 -98 78 -104 114 -140 222 -221 126 -94
255 -154 390 -180 l65 -13 -30 -14 c-16 -7 -78 -48 -137 -91 -58 -43 -122 -85
-142 -95 -49 -23 -45 -35 6 -17 22 8 95 21 162 30 67 8 195 33 286 55 383 93
489 112 750 129 356 24 494 67 570 177 58 84 62 153 20 308 -35 129 -37 168
-10 213 23 37 136 114 219 147 130 53 712 207 996 264 593 118 997 135 1415
60 216 -39 235 -44 247 -71 25 -54 96 -128 146 -152 64 -32 181 -44 245 -27
106 29 174 141 175 288 1 74 -2 88 -33 149 -50 96 -64 104 -201 113 -104 7
-111 8 -84 20 16 7 37 10 47 8 33 -9 18 8 -43 48 -159 105 -521 554 -793 984
-85 134 -117 192 -334 591 -268 494 -355 664 -627 1215 -144 292 -366 728
-494 969 -290 545 -316 604 -346 758 l-12 67 28 6 c37 8 122 85 143 129 40 84
18 141 -120 316 -63 80 -201 273 -306 430 -106 157 -265 387 -353 511 -89 124
-179 254 -200 290 -92 155 -174 201 -299 167 -67 -18 -88 -4 -137 94 -59 117
-85 189 -134 378 -47 178 -76 255 -103 277 -33 27 -117 63 -147 63 -16 0 -48
-10 -70 -23z"/>
<path d="M1213 7006 c-50 -14 -113 -34 -140 -46 -81 -36 -260 -139 -418 -240
-82 -52 -188 -118 -235 -145 -154 -88 -220 -134 -220 -153 0 -44 90 -142 131
-142 9 0 31 24 49 53 85 132 315 317 546 440 323 171 402 177 647 44 111 -61
240 -105 329 -112 40 -4 134 -2 209 4 172 13 263 4 516 -53 350 -79 382 -88
315 -93 -15 -1 -94 -23 -176 -48 -205 -64 -265 -75 -456 -81 -145 -6 -190 -3
-370 21 -305 41 -344 44 -476 35 -86 -6 -142 -16 -200 -35 -93 -31 -345 -140
-459 -199 -88 -45 -117 -48 -235 -28 -36 6 -109 18 -163 27 -54 8 -119 20
-145 26 -37 8 -61 7 -117 -7 -38 -9 -77 -23 -86 -30 -8 -8 -25 -14 -37 -14
-32 0 -27 -17 8 -23 17 -4 30 -12 30 -20 0 -12 74 -74 115 -95 11 -5 47 -15
80 -22 66 -14 220 -73 245 -94 42 -37 241 -106 366 -127 63 -10 79 -9 155 10
46 12 120 38 164 57 44 20 118 50 165 67 81 29 92 30 225 30 77 -1 248 -11
380 -23 132 -12 326 -24 430 -27 225 -6 278 3 413 71 49 24 117 57 153 72 l64
28 365 1 c391 1 438 5 659 67 79 21 333 137 345 157 4 6 19 11 34 11 37 0 48
10 55 46 9 49 -9 100 -41 113 -34 14 -65 9 -126 -19 -69 -31 -154 -40 -425
-42 -252 -1 -321 6 -521 57 -52 13 -138 29 -190 35 -112 14 -230 46 -515 143
l-210 71 -270 7 c-164 4 -285 11 -308 18 -53 17 -190 81 -272 127 -184 103
-244 116 -382 80z"/>
<path d="M9760 6800 c-69 -15 -276 -121 -370 -191 -211 -155 -379 -309 -447
-409 -35 -52 -103 -184 -103 -201 0 -6 -21 -30 -47 -54 l-48 -44 26 -48 c24
-44 33 -50 99 -76 87 -34 175 -43 530 -57 257 -10 392 -24 530 -55 106 -24
271 -16 410 20 58 15 143 29 190 32 97 6 114 2 394 -98 306 -109 417 -121 588
-65 96 32 274 120 309 153 l27 25 113 -11 c114 -12 199 -26 486 -81 179 -35
239 -37 291 -11 152 77 18 289 -273 433 -248 124 -480 185 -834 219 -337 33
-525 65 -721 123 -158 47 -198 63 -415 175 -257 132 -362 178 -458 201 -102
24 -218 32 -277 20z m350 -138 c47 -16 159 -63 250 -105 272 -124 399 -174
522 -207 208 -55 553 -119 783 -145 237 -26 459 -70 559 -110 216 -87 413
-239 432 -333 6 -30 5 -31 -42 -38 -123 -18 -318 61 -519 212 -38 29 -101 69
-140 91 -66 36 -75 38 -150 37 -56 -1 -117 -11 -200 -33 -148 -40 -221 -47
-311 -32 -66 11 -117 30 -374 138 -176 74 -218 85 -330 90 -136 7 -256 -14
-397 -68 -86 -32 -158 -49 -358 -84 -137 -24 -283 -51 -324 -60 -100 -21 -347
-37 -448 -29 l-82 7 26 46 c55 96 170 256 232 323 135 146 340 278 501 322 91
25 264 15 370 -22z"/>
<path d="M822 2490 c-7 -11 -8 -20 -3 -20 9 0 24 30 18 36 -1 2 -8 -6 -15 -16z"/>
</g>
</svg>
