<?xml version="1.0" standalone="no"?>
<!DOCTYPE svg PUBLIC "-//W3C//DTD SVG 20010904//EN"
 "http://www.w3.org/TR/2001/REC-SVG-20010904/DTD/svg10.dtd">
<svg version="1.0" xmlns="http://www.w3.org/2000/svg"
 width="1280.000000pt" height="1046.000000pt" viewBox="0 0 1280.000000 1046.000000"
 preserveAspectRatio="xMidYMid meet">
<metadata>
Created by potrace 1.15, written by Peter Selinger 2001-2017
</metadata>
<g transform="translate(0.000000,1046.000000) scale(0.100000,-0.100000)"
fill="#ff5722" stroke="none">
<path d="M7807 10096 c-105 -28 -187 -116 -288 -307 -46 -87 -85 -143 -138
-202 -126 -140 -168 -221 -216 -420 -33 -137 -40 -155 -100 -287 -30 -64 -60
-149 -69 -192 -31 -150 -16 -345 46 -613 43 -187 38 -269 -24 -420 -47 -111
-68 -194 -88 -342 -13 -101 -40 -183 -91 -284 -21 -43 -48 -111 -60 -151 -29
-102 -36 -293 -15 -466 23 -195 5 -264 -84 -329 -77 -54 -141 -116 -165 -158
-13 -22 -42 -93 -64 -158 -22 -65 -63 -171 -91 -236 -63 -151 -70 -177 -165
-658 -7 -35 -9 -63 -4 -63 4 0 -14 -20 -40 -45 -42 -40 -54 -45 -93 -45 -48 0
-128 24 -193 58 -69 35 -166 112 -186 147 -29 49 -49 53 -81 13 -15 -18 -89
-121 -165 -228 -588 -840 -1263 -1641 -1854 -2200 -890 -843 -1731 -1432
-3364 -2357 -110 -62 -200 -117 -200 -122 0 -5 2848 -11 6370 -13 3504 -3
6376 -7 6384 -9 7 -2 15 1 18 7 2 6 -59 34 -139 63 -1318 488 -2163 973 -3055
1750 -685 598 -1517 1493 -2559 2756 -234 283 -298 365 -287 365 5 0 25 35 46
78 41 87 86 146 125 166 15 8 65 21 112 30 164 31 276 110 390 277 87 127 113
154 190 199 108 63 144 115 211 300 46 127 85 169 189 199 231 69 362 241 484
633 56 182 82 310 96 473 24 275 46 308 180 265 207 -66 358 -19 520 160 101
112 118 119 295 120 200 0 279 25 369 117 43 43 126 189 126 221 0 25 62 148
88 175 49 53 132 82 193 70 19 -4 62 -34 114 -83 45 -42 99 -85 120 -94 166
-79 312 94 356 423 41 302 -62 643 -243 806 -101 91 -198 119 -344 102 -120
-14 -147 -5 -249 78 -44 36 -114 82 -154 103 -68 34 -82 37 -155 37 -90 0
-117 -11 -235 -91 -62 -43 -81 -49 -130 -45 -74 7 -188 105 -261 225 -95 158
-157 206 -267 206 -120 0 -240 -94 -367 -287 -71 -108 -98 -133 -144 -133 -42
0 -83 35 -237 207 -182 203 -244 239 -358 209z"/>
<path d="M5796 7665 c-18 -27 -14 -45 9 -45 8 0 26 -15 42 -34 15 -19 31 -32
35 -30 15 9 9 84 -6 84 -8 0 -16 6 -19 14 -3 8 -15 19 -25 25 -17 9 -23 6 -36
-14z"/>
<path d="M5914 7430 c100 -638 126 -950 133 -1602 3 -263 9 -478 14 -478 19 0
4 767 -21 1120 -26 363 -104 978 -126 999 -4 3 -4 -14 0 -39z"/>
<path d="M5119 6372 c-5 -15 -12 -33 -14 -40 -7 -19 23 -72 40 -72 8 0 23 21
35 46 17 41 25 74 17 74 -1 0 -17 4 -35 9 -30 9 -34 8 -43 -17z"/>
<path d="M5231 6303 c0 -5 37 -26 81 -47 62 -30 100 -57 158 -115 147 -145
239 -352 304 -681 13 -69 29 -147 35 -175 l10 -50 -5 59 c-7 93 -52 299 -91
421 -84 264 -207 441 -377 540 -54 32 -116 57 -115 48z"/>
</g>
</svg>
