<?xml version="1.0" standalone="no"?>
<!DOCTYPE svg PUBLIC "-//W3C//DTD SVG 20010904//EN"
 "http://www.w3.org/TR/2001/REC-SVG-20010904/DTD/svg10.dtd">
<svg version="1.0" xmlns="http://www.w3.org/2000/svg"
 width="692.000000pt" height="158.000000pt" viewBox="0 0 692.000000 158.000000"
 preserveAspectRatio="xMidYMid meet">

<g transform="translate(0.000000,158.000000) scale(0.100000,-0.100000)"
fill="#000000" stroke="none">
<path d="M1502 1542 c-65 -24 -96 -51 -124 -113 l-21 -48 -25 20 c-26 20 -58
18 -77 -6 -9 -11 -21 -10 -65 6 -105 35 -189 21 -254 -45 -54 -54 -73 -108
-87 -253 -18 -187 12 -365 77 -450 58 -76 175 -95 234 -38 39 37 57 99 65 218
6 88 -1 244 -11 234 -2 -2 -8 -50 -14 -108 -21 -204 -46 -298 -85 -313 -28
-10 -65 -7 -96 10 -71 36 -109 210 -89 408 17 173 51 252 99 227 32 -18 83
-13 107 10 l22 20 41 -20 c30 -16 59 -21 114 -21 66 0 77 3 99 25 14 13 30 42
36 63 23 77 68 102 182 102 72 0 115 -27 152 -95 34 -64 61 -85 107 -85 49 0
63 -11 70 -56 6 -37 9 -39 44 -42 l38 -3 -6 38 c-14 81 -26 104 -61 119 -18 8
-44 14 -57 14 -27 0 -47 19 -72 70 -42 84 -105 122 -215 127 -55 3 -89 -1
-128 -15z"/>
<path d="M1513 1377 c-18 -7 -40 -19 -48 -28 -15 -15 -7 -17 93 -23 118 -7
215 0 206 16 -25 41 -178 62 -251 35z"/>
<path d="M4056 1124 c-9 -8 -16 -25 -16 -38 0 -30 59 -86 91 -86 29 0 59 28
59 54 0 23 -18 56 -31 56 -6 0 -17 7 -25 15 -20 20 -58 19 -78 -1z"/>
<path d="M1515 1106 c-95 -44 -146 -127 -147 -238 0 -89 29 -146 110 -215 67
-57 109 -73 193 -73 99 0 193 65 234 164 8 19 15 64 15 100 0 90 -35 155 -118
218 -97 74 -193 88 -287 44z m212 -107 c64 -24 85 -151 37 -226 -43 -66 -119
-96 -187 -74 -71 24 -106 155 -61 232 44 75 122 101 211 68z m-79 -386 c-10
-2 -28 -2 -40 0 -13 2 -5 4 17 4 22 1 32 -1 23 -4z"/>
<path d="M2970 1060 c0 -66 -1 -70 -22 -70 -20 0 -23 -5 -23 -35 0 -26 4 -35
16 -35 24 0 29 -29 29 -172 0 -105 3 -128 15 -128 7 0 18 -7 23 -16 6 -11 20
-14 48 -12 l39 3 3 142 c3 143 3 143 27 149 20 5 25 12 25 39 0 25 -5 34 -21
38 -12 3 -18 10 -14 16 3 6 2 11 -4 11 -5 0 -11 24 -13 52 -2 40 -7 54 -20 56
-14 3 -18 -6 -21 -45 -3 -28 -3 -22 -2 15 l3 62 -44 0 -44 0 0 -70z m87 -367
c-1 -43 -3 -10 -3 72 0 83 2 118 3 78 2 -40 2 -107 0 -150z"/>
<path d="M3878 1040 c2 -49 2 -90 0 -90 -2 0 -25 11 -52 25 -57 29 -83 31
-133 10 -50 -21 -72 -42 -94 -90 -41 -89 -15 -190 65 -258 75 -62 132 -73 198
-37 33 17 38 18 46 4 6 -11 20 -14 48 -12 l39 3 3 253 c2 247 2 254 -18 259
-11 3 -20 9 -20 14 0 5 -19 9 -42 9 l-43 0 3 -90z m-95 -117 c-7 -2 -19 -2
-25 0 -7 3 -2 5 12 5 14 0 19 -2 13 -5z m53 -39 c41 -11 56 -81 29 -134 -21
-40 -53 -60 -96 -60 -43 0 -59 26 -59 93 1 72 59 119 126 101z"/>
<path d="M2062 980 c-28 -17 -33 -18 -38 -5 -4 9 -19 15 -40 15 l-34 0 0 -185
c0 -151 3 -185 14 -185 8 0 16 -7 20 -15 8 -21 82 -20 90 1 3 9 6 66 6 128 0
119 12 156 49 156 36 0 65 65 34 77 -10 3 -22 12 -26 20 -11 18 -37 16 -75 -7z
m-25 -142 c-3 -8 -6 -5 -6 6 -1 11 2 17 5 13 3 -3 4 -12 1 -19z"/>
<path d="M2307 985 c-107 -37 -158 -165 -107 -265 29 -57 120 -127 176 -136
59 -9 114 8 161 49 45 39 63 82 63 147 0 72 -28 121 -94 165 -84 56 -130 65
-199 40z m161 -130 c36 -78 -19 -165 -103 -165 -33 0 -55 36 -55 89 0 65 36
101 100 101 40 0 48 -3 58 -25z"/>
<path d="M2720 994 c-70 -25 -99 -72 -80 -128 11 -34 61 -80 117 -109 40 -21
48 -34 33 -52 -17 -21 -63 -19 -92 5 l-25 19 -27 -28 -27 -28 42 -36 c23 -21
59 -42 79 -48 111 -33 215 65 166 155 -10 17 -45 49 -81 71 -35 22 -64 45 -65
51 0 21 30 24 65 7 33 -16 36 -15 55 2 12 10 20 28 18 39 -6 41 -131 97 -178
80z m157 -281 c-3 -10 -5 -4 -5 12 0 17 2 24 5 18 2 -7 2 -21 0 -30z"/>
<path d="M4349 987 c-104 -39 -153 -127 -128 -230 14 -60 78 -129 148 -160
153 -68 317 91 257 248 -39 101 -185 176 -277 142z m151 -126 c5 -11 10 -38
10 -61 0 -90 -118 -151 -155 -80 -19 37 -19 73 0 110 20 38 41 49 92 50 32 0
45 -5 53 -19z m97 -68 c-3 -10 -5 -4 -5 12 0 17 2 24 5 18 2 -7 2 -21 0 -30z
m-300 5 c-3 -8 -6 -5 -6 6 -1 11 2 17 5 13 3 -3 4 -12 1 -19z m263 -112 c0 -2
-8 -10 -17 -17 -16 -13 -17 -12 -4 4 13 16 21 21 21 13z"/>
<path d="M4734 986 c-41 -18 -64 -52 -64 -95 0 -29 9 -43 51 -82 29 -26 65
-53 81 -60 21 -9 28 -18 26 -33 -4 -29 -59 -34 -95 -8 l-27 19 -25 -30 -25
-29 35 -30 c68 -58 132 -72 195 -42 55 26 81 103 53 155 -9 18 -110 90 -142
102 -9 3 -7 10 4 22 16 16 19 16 54 0 l37 -18 26 27 27 27 -40 35 c-37 32 -90
54 -125 54 -8 -1 -29 -7 -46 -14z"/>
<path d="M5116 986 c-86 -32 -136 -97 -136 -177 0 -65 21 -107 78 -161 68 -64
151 -84 233 -56 44 15 89 46 89 62 0 7 -22 27 -49 43 l-49 31 -28 -19 c-17
-11 -47 -19 -71 -19 -35 0 -46 5 -60 27 -64 97 51 209 157 154 38 -19 43 -20
70 -6 42 22 43 30 9 60 -77 64 -171 88 -243 61z m81 -62 c-3 -3 -12 -4 -19 -1
-8 3 -5 6 6 6 11 1 17 -2 13 -5z"/>
<path d="M5554 990 c-12 -5 -25 -13 -29 -19 -9 -16 -25 -13 -25 4 0 11 -11 15
-40 15 l-40 0 0 -185 c0 -178 1 -185 20 -185 11 0 20 -7 20 -16 0 -12 9 -14
43 -12 l42 3 5 125 c6 138 16 170 56 170 17 0 27 8 34 26 15 38 12 54 -9 54
-10 0 -21 7 -25 15 -6 17 -20 18 -52 5z m-47 -322 c-2 -29 -3 -8 -3 47 0 55 1
79 3 53 2 -26 2 -71 0 -100z"/>
<path d="M3170 906 c0 -45 3 -111 6 -145 6 -55 12 -68 51 -111 64 -71 138 -88
221 -50 66 30 82 73 82 233 0 107 -2 127 -15 127 -9 0 -18 7 -21 15 -4 10 -20
15 -45 15 l-39 0 0 -115 c0 -147 -17 -185 -80 -185 -25 0 -30 27 -30 158 0
105 -1 112 -20 112 -11 0 -20 7 -20 15 0 11 -12 15 -45 15 l-45 0 0 -84z"/>
<path d="M4050 805 c0 -151 3 -185 14 -185 8 0 17 -7 20 -16 4 -11 17 -14 48
-12 l43 3 3 183 c2 176 2 182 -18 182 -19 0 -20 -8 -23 -167 l-3 -168 0 181 1
181 -42 2 -43 2 0 -186z"/>
<path d="M2944 440 c-22 -40 -32 -50 -53 -50 -23 -1 -24 -2 -10 -13 14 -11 11
-21 -33 -97 -55 -96 -58 -123 -14 -128 23 -3 38 6 82 52 30 31 54 60 54 66 0
6 -19 -13 -43 -42 -51 -62 -84 -77 -73 -31 13 51 91 168 114 171 24 4 30 18
10 24 -8 3 -5 15 10 40 27 44 28 58 3 58 -13 0 -29 -17 -47 -50z"/>
<path d="M2360 469 c0 -6 -38 -77 -85 -157 -47 -80 -85 -149 -85 -154 0 -4 8
-8 18 -8 11 0 31 23 56 65 39 67 97 126 104 106 2 -6 -11 -34 -28 -63 -39 -63
-44 -102 -13 -106 23 -3 90 56 114 100 7 13 -8 1 -32 -26 -61 -67 -80 -57 -33
16 51 83 39 122 -29 93 -14 -6 -7 10 22 59 23 36 41 71 41 76 0 6 -11 10 -25
10 -14 0 -25 -5 -25 -11z"/>
<path d="M4511 321 c-50 -88 -91 -162 -91 -165 0 -3 9 -6 19 -6 12 0 29 17 46
48 15 26 39 63 54 82 14 19 26 40 27 47 1 7 18 39 38 71 41 67 44 82 17 82
-13 0 -43 -44 -110 -159z"/>
<path d="M2062 334 c-12 -8 -22 -10 -22 -5 0 6 -11 11 -25 11 -14 0 -25 -5
-25 -11 0 -20 -107 -194 -150 -242 -32 -36 -49 -47 -71 -47 -23 0 -29 4 -27
17 2 10 -4 19 -14 21 -27 5 -24 -45 3 -53 47 -15 91 5 154 69 53 54 66 62 91
59 36 -5 89 28 121 76 27 40 31 106 7 115 -20 8 -16 9 -42 -10z m20 -35 c-1
-12 -16 -45 -33 -71 -35 -55 -65 -76 -82 -59 -13 13 13 66 62 122 36 43 58 46
53 8z"/>
<path d="M2624 336 c-46 -20 -104 -93 -104 -131 0 -40 16 -55 57 -55 51 0 114
63 137 137 5 15 1 28 -13 42 -24 24 -35 25 -77 7z m56 -26 c0 -32 -36 -95 -71
-124 -66 -56 -64 23 2 98 44 49 69 59 69 26z"/>
<path d="M3112 329 c-43 -22 -74 -56 -92 -104 -14 -38 10 -75 49 -75 87 0 186
155 122 190 -26 14 -30 13 -79 -11z m68 -16 c0 -48 -86 -163 -111 -147 -17 10
-9 51 17 90 43 64 94 95 94 57z"/>
<path d="M3660 293 c-18 -32 -51 -77 -73 -100 -23 -24 -36 -43 -30 -43 15 0
67 60 95 110 14 24 30 40 42 40 20 0 21 2 -32 -64 -27 -34 -27 -79 1 -84 11
-2 32 9 49 25 36 34 72 83 61 83 -4 -1 -20 -19 -35 -40 -15 -22 -32 -40 -38
-40 -21 0 -9 39 30 99 l40 61 -28 -2 c-15 -1 -33 1 -39 5 -7 4 -23 -15 -43
-50z"/>
<path d="M4292 334 c-12 -8 -22 -10 -22 -5 0 6 -9 11 -19 11 -13 0 -31 -21
-57 -67 -86 -156 -151 -233 -197 -233 -24 0 -27 3 -22 20 5 16 2 20 -14 20
-26 0 -30 -45 -5 -54 53 -20 108 5 175 82 36 43 47 50 70 45 49 -10 115 40
144 109 19 46 19 53 -1 72 -19 20 -24 20 -52 0z m28 -19 c0 -39 -82 -155 -108
-155 -24 0 -22 23 4 68 46 78 104 127 104 87z"/>
<path d="M4585 334 c-17 -13 -17 -15 -2 -10 26 8 21 -15 -18 -80 -40 -66 -41
-87 -6 -92 18 -3 35 9 72 48 27 29 49 57 49 63 0 5 -18 -11 -41 -37 -63 -71
-82 -58 -28 20 47 68 28 132 -26 88z"/>
<path d="M3365 299 c-47 -43 -68 -84 -63 -121 4 -27 41 -37 65 -16 14 11 14 9
-1 -19 -31 -60 -76 -103 -107 -103 -23 0 -29 4 -27 17 2 10 -4 19 -14 21 -26
5 -23 -35 3 -49 33 -17 100 6 141 50 30 31 124 174 157 238 11 21 9 21 -50 22
-57 0 -63 -2 -104 -40z m95 14 c0 -36 -84 -143 -112 -143 -15 0 -8 35 13 70
44 73 99 114 99 73z"/>
<path d="M3933 319 c-43 -27 -83 -91 -83 -133 0 -45 20 -51 64 -21 34 23 36
23 36 5 0 -48 88 6 121 73 6 13 1 10 -13 -8 -72 -93 -87 -78 -28 28 l40 74
-53 1 c-36 0 -63 -6 -84 -19z m77 -3 c0 -23 -84 -141 -102 -144 -41 -8 4 101
60 146 21 16 42 15 42 -2z"/>
<path d="M4792 270 c-59 -98 -53 -149 12 -115 l27 14 -23 -41 c-46 -82 -128
-128 -128 -72 0 19 -5 25 -17 22 -28 -5 -28 -36 1 -49 72 -33 147 25 239 185
37 63 67 118 67 121 0 3 -10 5 -22 5 -18 0 -31 -15 -58 -67 -33 -62 -82 -114
-96 -100 -3 3 12 39 35 80 23 41 41 77 41 81 0 3 -8 6 -18 6 -13 0 -33 -24
-60 -70z"/>
</g>
</svg>
